<?xml version="1.0" standalone="no"?>
<!DOCTYPE svg PUBLIC "-//W3C//DTD SVG 20010904//EN"
 "http://www.w3.org/TR/2001/REC-SVG-20010904/DTD/svg10.dtd">
<svg version="1.0" xmlns="http://www.w3.org/2000/svg"
 width="1024.000000pt" height="1024.000000pt" viewBox="0 0 1024.000000 1024.000000"
 preserveAspectRatio="xMidYMid meet">

<g transform="translate(0.000000,1024.000000) scale(0.100000,-0.100000)"
fill="#000000" stroke="none">
<path d="M5520 8750 c-667 -55 -1296 -314 -1831 -752 -358 -294 -769 -746
-1026 -1128 -164 -245 -317 -545 -400 -785 -83 -239 -137 -528 -149 -795 -30
-669 216 -1328 635 -1698 269 -237 565 -359 987 -408 178 -20 456 -14 652 14
l124 18 -6 -50 c-3 -28 -8 -132 -12 -231 -7 -205 5 -305 57 -459 69 -207 213
-378 396 -470 322 -161 806 -115 1333 127 389 179 910 570 1320 993 233 240
356 391 505 619 167 255 280 479 349 692 39 123 44 164 21 183 -22 18 -34 5
-95 -103 -216 -381 -581 -832 -942 -1164 -598 -551 -1216 -923 -1723 -1038
-161 -37 -344 -39 -450 -5 -105 34 -163 66 -232 132 -117 113 -173 275 -173
502 0 108 31 328 50 350 6 8 52 24 103 36 523 126 1130 420 1612 780 556 416
1126 1075 1396 1613 174 346 257 739 229 1084 -20 248 -74 389 -194 508 -175
173 -413 201 -715 85 -221 -86 -503 -300 -846 -645 -594 -596 -1100 -1302
-1476 -2056 -148 -298 -309 -692 -370 -909 -16 -57 -33 -108 -37 -112 -10 -10
-132 -35 -267 -55 -153 -23 -409 -22 -545 1 -195 33 -394 111 -545 211 -245
163 -451 482 -535 830 -51 213 -65 498 -36 736 85 683 490 1469 1046 2030 312
315 596 521 955 695 557 269 1104 337 1637 203 161 -40 241 -69 400 -146 79
-39 143 -63 152 -60 9 4 16 18 16 32 0 31 -35 54 -180 117 -193 85 -503 169
-715 193 -52 6 -57 9 -35 17 32 12 347 -6 453 -27 232 -45 430 -112 592 -202
107 -59 141 -83 274 -190 61 -49 77 -53 92 -19 18 39 3 71 -67 146 -245 260
-704 468 -1190 540 -160 23 -438 33 -594 20z m-30 -180 c-14 -4 -45 -8 -70 -8
l-45 1 40 7 c22 4 54 7 70 8 29 0 29 0 5 -8z m-130 -20 c-8 -5 -19 -10 -25
-10 -5 0 -3 5 5 10 8 5 20 10 25 10 6 0 3 -5 -5 -10z m-1189 -450 c-13 -11
-28 -20 -35 -20 -6 0 0 9 14 20 33 26 52 25 21 0z m-51 -24 c0 -4 -144 -108
-179 -130 -22 -13 -2 15 27 39 21 17 142 93 150 95 1 0 2 -2 2 -4z m-552 -445
c-90 -88 -165 -158 -167 -156 -12 13 299 315 324 315 3 0 -68 -72 -157 -159z
m4201 -527 c105 -21 145 -327 86 -649 -96 -511 -413 -1076 -857 -1526 -372
-378 -905 -757 -1385 -985 -207 -99 -573 -237 -588 -223 -12 13 157 404 293
674 265 531 526 950 878 1412 484 635 898 1052 1197 1203 109 55 175 77 269
89 35 5 66 9 69 10 4 0 21 -2 38 -5z m-4699 -106 c-16 -24 -48 -69 -70 -100
-36 -51 -76 -93 -55 -57 25 42 92 137 112 159 13 14 23 28 23 32 0 5 5 8 11 8
5 0 -4 -19 -21 -42z m5153 -2853 c-3 -9 -8 -14 -10 -11 -3 3 -2 9 2 15 9 16
15 13 8 -4z"/>
</g>
</svg>
